<?xml version="1.0" encoding="utf-8"?>
<!-- Generator: Adobe Illustrator 23.0.3, SVG Export Plug-In . SVG Version: 6.00 Build 0)  -->
<svg version="1.1" id="_ÎÓÈ_1" xmlns="http://www.w3.org/2000/svg" xmlns:xlink="http://www.w3.org/1999/xlink" x="0px" y="0px"
	 viewBox="0 0 74.3 66" style="enable-background:new 0 0 74.3 66;" xml:space="preserve">
<style type="text/css">
	.st0{fill:#FFFFFF;}
</style>
<title>white-text-transparent-bg</title>
<path class="st0" d="M56.1,65.2l-49.9-35c-5.8-4.1-7.3-12.2-3.2-18C3.9,11,5,9.9,6.2,9.1l12.1-8.5l49.9,35c5.8,4.1,7.3,12.2,3.2,18
	c-0.9,1.2-1.9,2.3-3.2,3.2L56.1,65.2z M18.3,6.2l-9.4,6.6c-3.8,2.6-4.7,7.8-2,11.6c0.6,0.8,1.3,1.5,2,2l47.2,33.1l9.4-6.6
	c3.8-2.6,4.7-7.8,2-11.6c-0.6-0.8-1.3-1.5-2-2L18.3,6.2z"/>
<path class="st0" d="M18.3,59.6L8.8,53c-3.8-2.6-4.7-7.8-2-11.6c0.6-0.8,1.3-1.5,2-2l24.3-17l-4-2.8l-23,16
	c-5.8,4.1-7.3,12.2-3.2,18c0.9,1.2,1.9,2.3,3.2,3.2l12.1,8.5l14.9-10.4l-4-2.8L18.3,59.6z"/>
<path class="st0" d="M68.2,9.1L56.2,0.6L41.2,11.1l4,2.8l10.9-7.6l9.4,6.6c3.8,2.6,4.7,7.8,2,11.6c-0.6,0.8-1.3,1.5-2,2l-24.3,17
	l4,2.8l23-16.1c5.8-4.1,7.3-12.2,3.2-18C70.5,11,69.4,9.9,68.2,9.1L68.2,9.1z"/>
<rect x="8.3" y="26.5" transform="matrix(0.8194 -0.5733 0.5733 0.8194 -12.9044 16.5918)" class="st0" width="23.2" height="4.6"/>
<path class="st0" d="M63.1,28.2l-9.2,6.5l2.6,3.8l9.6-6.7C65.1,30.6,64.1,29.4,63.1,28.2z"/>
</svg>
